<?xml version="1.0" encoding="utf-8" ?>
<svg baseProfile="tiny" height="128px" version="1.2" width="128px" xmlns="http://www.w3.org/2000/svg" xmlns:ev="http://www.w3.org/2001/xml-events" xmlns:xlink="http://www.w3.org/1999/xlink"><defs><g id="sym"><polygon fill="#792138" points="16.0,0 32,0 16.0,32 0,32" /><polygon fill="#792138" points="32,32 64,32 64,64 56.0,48.0 40.0,48.0 48.0,64 56.0,48.0 48.0,32 32,64" /></g><g id="asy"><polygon fill="#2d7689" points="16.0,32 16.0,64 0,64 32,32 32,64 16.0,64 32,48.0 0,48.0" /></g><g id="quar"><use xlink:href="#sym" /><use xlink:href="#asy" /><use transform="rotate(90,0,0) scale(1,-1)" xlink:href="#asy" /></g></defs><use transform="rotate(0,64,64)" xlink:href="#quar" /><use transform="rotate(270,64,64)" xlink:href="#quar" /><use transform="rotate(90,64,64)" xlink:href="#quar" /><use transform="rotate(180,64,64)" xlink:href="#quar" /></svg>