<?xml version="1.0" encoding="utf-8" ?>
<svg baseProfile="tiny" height="128px" version="1.2" width="128px" xmlns="http://www.w3.org/2000/svg" xmlns:ev="http://www.w3.org/2001/xml-events" xmlns:xlink="http://www.w3.org/1999/xlink"><defs><g id="sym"><polygon fill="#c5e99d" points="0,0 32,0 32,32 24.0,16.0 8.0,16.0 16.0,32 24.0,16.0 16.0,0 0,32" /><polygon fill="#c5e99d" points="32,32 64,32 64,64 32,64" /></g><g id="asy"><polygon fill="#10ca43" points="0,32 32,32 32,64 24.0,48.0 8.0,48.0 16.0,64 24.0,48.0 16.0,32 0,64" /></g><g id="quar"><use xlink:href="#sym" /><use xlink:href="#asy" /><use transform="rotate(90,0,0) scale(1,-1)" xlink:href="#asy" /></g></defs><use transform="rotate(0,64,64)" xlink:href="#quar" /><use transform="rotate(270,64,64)" xlink:href="#quar" /><use transform="rotate(90,64,64)" xlink:href="#quar" /><use transform="rotate(180,64,64)" xlink:href="#quar" /></svg>